<svg width="66" height="66" viewBox="0 0 66 66" fill="none" xmlns="http://www.w3.org/2000/svg">
<path d="M24.8 1.69995H2V24.5H24.8V1.69995Z" stroke="white" stroke-width="3" stroke-miterlimit="10"/>
<path d="M17.9 8.69995H9V17.5999H17.9V8.69995Z" fill="white" stroke="white" stroke-width="3" stroke-miterlimit="10"/>
<path d="M63.9001 1.69995H41.1001V24.5H63.9001V1.69995Z" stroke="white" stroke-width="3" stroke-miterlimit="10"/>
<path d="M57.0001 8.69995H48.1001V17.5999H57.0001V8.69995Z" fill="white" stroke="white" stroke-width="3" stroke-miterlimit="10"/>
<path d="M24.8 41.3999H2V64.1999H24.8V41.3999Z" stroke="white" stroke-width="3" stroke-miterlimit="10"/>
<path d="M17.9 48.3999H9V57.2999H17.9V48.3999Z" fill="white" stroke="white" stroke-width="3" stroke-miterlimit="10"/>
<path d="M36.2002 43.0999V64.2998H41.5002" stroke="white" stroke-width="3" stroke-miterlimit="10"/>
<path d="M51.1001 64.2999H63.7001V53.7" stroke="white" stroke-width="3" stroke-miterlimit="10"/>
<path d="M63.7002 48.0999V44.3999" stroke="white" stroke-width="3" stroke-miterlimit="10"/>
<path d="M36.2002 48.0999H41.5002" stroke="white" stroke-width="3" stroke-miterlimit="10"/>
<path d="M45.7998 46.8999H55.4998" stroke="white" stroke-width="3" stroke-miterlimit="10"/>
<path d="M51.1001 41.8V46.9001" stroke="white" stroke-width="3" stroke-miterlimit="10"/>
<path d="M41.7998 59H45.3998" stroke="white" stroke-width="3" stroke-miterlimit="10"/>
<path d="M48.3999 53.7H53.3999" stroke="white" stroke-width="3" stroke-miterlimit="10"/>
<path d="M55.5 57.3999V64.2999" stroke="white" stroke-width="3" stroke-miterlimit="10"/>
<path d="M35.7998 35.8H40.1998" stroke="white" stroke-width="3" stroke-miterlimit="10"/>
<path d="M58.5 32.8H62.8" stroke="white" stroke-width="3" stroke-miterlimit="10"/>
<path d="M41.2002 31.5H44.7002" stroke="white" stroke-width="3" stroke-miterlimit="10"/>
<path d="M51.5 34.2H54.2" stroke="white" stroke-width="3" stroke-miterlimit="10"/>
<path d="M33.2002 24.2V27.2" stroke="white" stroke-width="3" stroke-miterlimit="10"/>
<path d="M33.2002 15.3V21.2001" stroke="white" stroke-width="3" stroke-miterlimit="10"/>
<path d="M33.2002 1.69995V10.2999" stroke="white" stroke-width="3" stroke-miterlimit="10"/>
<path d="M11.5 32.8H30.5" stroke="white" stroke-width="3" stroke-miterlimit="10"/>
<path d="M2 32.8H9" stroke="white" stroke-width="3" stroke-miterlimit="10"/>
</svg>
